M48
; DRILL file {KiCad 5.1.10} date Thu Jul 15 07:28:41 2021
; FORMAT={-:-/ absolute / inch / decimal}
; #@! TF.CreationDate,2021-07-15T07:28:41-04:00
; #@! TF.GenerationSoftware,Kicad,Pcbnew,5.1.10
FMAT,2
INCH
T1C0.0315
T2C0.0354
T3C0.0472
T4C0.0787
%
G90
G05
T1
X0.315Y-0.2165
X0.315Y-0.4165
X0.4724Y-0.8268
X0.8724Y-0.8268
X0.9843Y-0.6102
X0.9843Y-0.9102
X1.2843Y-0.6102
X1.2843Y-0.9102
X1.4173Y-0.6094
X1.4173Y-0.9094
X1.6535Y-0.6772
X1.6535Y-0.8268
X1.7717Y-0.4724
X1.8441Y-0.315
X1.9291Y-0.5906
X1.9291Y-0.7874
X2.0472Y-0.7087
X2.0472Y-0.8661
X2.1717Y-0.4724
X2.2441Y-0.315
X2.4472Y-0.7087
X2.4472Y-0.8661
T2
X2.3425Y-0.4709
X2.3425Y-0.5709
X2.5591Y-0.1378
X2.5591Y-0.3386
X2.5591Y-0.7402
X2.5591Y-0.8386
T3
X0.3299Y-0.6496
X0.4724Y-0.2953
X0.6299Y-0.6496
X0.6693Y-0.2953
X1.5551Y-0.2953
X1.5551Y-0.2953
T4
X0.1378Y-0.4134
X0.1378Y-0.6496
X2.8346Y-0.3346
X2.8346Y-0.6496
T0
M30
